<svg width="96" height="86" viewBox="0 0 96 86" fill="none" xmlns="http://www.w3.org/2000/svg">
<path fill-rule="evenodd" clip-rule="evenodd" d="M19.9068 9.24502C17.7722 7.18582 17.7722 3.76656 19.9068 1.70742C21.9355 -0.249681 25.1494 -0.249681 27.1782 1.70742L38.4919 12.6215C38.8133 12.9316 39.0863 13.2725 39.311 13.635H56.4208C56.6459 13.2725 56.9189 12.9316 57.24 12.6215L68.5536 1.70742C70.5824 -0.249681 73.7963 -0.249681 75.8251 1.70742C77.96 3.76656 77.96 7.18582 75.8251 9.24502L71.2747 13.635H74.6667C86.4485 13.635 96 23.1863 96 34.9684V64.3312C96 76.1131 86.4485 85.6645 74.6667 85.6645H21.3333C9.55125 85.6645 0 76.1131 0 64.3312V34.9683C0 23.1862 9.55125 13.635 21.3333 13.635H24.4575L19.9068 9.24502ZM21.3333 23.925C15.4423 23.925 10.6667 28.7006 10.6667 34.5916V64.7077C10.6667 70.5989 15.4423 75.3744 21.3333 75.3744H74.6667C80.5579 75.3744 85.3333 70.5989 85.3333 64.7077V34.5916C85.3333 28.7006 80.5579 23.925 74.6667 23.925H21.3333ZM26.6667 44.6932C26.6667 41.7477 29.0545 39.3598 32 39.3598C34.9455 39.3598 37.3333 41.7477 37.3333 44.6932V49.4613C37.3333 52.4069 34.9455 54.7947 32 54.7947C29.0545 54.7947 26.6667 52.4069 26.6667 49.4613V44.6932ZM64 39.3598C61.0544 39.3598 58.6667 41.7477 58.6667 44.6932V49.4613C58.6667 52.4069 61.0544 54.7947 64 54.7947C66.9456 54.7947 69.3333 52.4069 69.3333 49.4613V44.6932C69.3333 41.7477 66.9456 39.3598 64 39.3598Z" fill="#00AEEC"/>
</svg>
